# Blender v2.82 (sub 7) OBJ File: ''
# www.blender.org
mtllib plate.mtl
o Cube_Cube.003
v -3.810000 -0.640000 2.540000
v -3.810000 -0.420486 2.540000
v -3.810000 -0.144267 2.540000
v -3.810000 -0.640000 1.668805
v -3.810000 -0.405734 1.610258
v -3.810000 -0.139788 1.592339
v -3.810000 -0.640000 0.572560
v -3.810000 -0.401219 0.554782
v -3.810000 -0.138065 0.547945
v -2.503207 -0.640000 2.540000
v -2.415386 -0.405734 2.540000
v -2.388508 -0.139788 2.540000
v -2.415386 -0.640000 1.610258
v -2.388508 -0.640000 0.554782
v -0.858841 -0.640000 2.540000
v -0.832173 -0.401219 2.540000
v -0.821918 -0.138065 2.540000
v -0.832173 -0.640000 1.592339
v -0.821918 -0.640000 0.547945
v -3.810000 0.155283 2.540000
v -3.810000 0.431221 2.540000
v -3.747981 0.640000 2.498654
v -3.810000 0.151891 1.590560
v -3.810000 0.412450 1.603391
v -3.782278 0.640000 1.646638
v -3.810000 0.150531 0.546863
v -3.810000 0.406353 0.550789
v -3.799793 0.640000 0.562705
v -2.385840 0.151891 2.540000
v -2.405087 0.412450 2.540000
v -2.469956 0.640000 2.521519
v -2.398340 0.640000 1.598893
v -2.378762 0.640000 0.549816
v -0.820295 0.150531 2.540000
v -0.826184 0.406353 2.540000
v -0.844058 0.640000 2.533196
v -0.824724 0.640000 1.585842
v -0.817950 0.640000 0.545300
v -3.810000 -0.640000 -0.616278
v -3.810000 -0.400771 -0.602817
v -3.810000 -0.137792 -0.597418
v -3.810000 -0.640000 -1.711410
v -3.810000 -0.404004 -1.636909
v -3.810000 -0.138782 -1.612715
v -3.747982 -0.629582 -2.540000
v -3.782279 -0.414901 -2.540000
v -3.799793 -0.141784 -2.540000
v -2.385840 -0.640000 -0.602817
v -2.405087 -0.640000 -1.636909
v -2.469956 -0.635343 -2.540000
v -2.398340 -0.402871 -2.540000
v -2.378762 -0.138536 -2.540000
v -0.820295 -0.640000 -0.597418
v -0.826184 -0.640000 -1.612715
v -0.844058 -0.638286 -2.540000
v -0.824724 -0.399582 -2.540000
v -0.817951 -0.137399 -2.540000
v -3.810000 0.150375 -0.596801
v -3.810000 0.405735 -0.601397
v -3.801964 0.640000 -0.613703
v -3.810000 0.151533 -1.610260
v -3.810000 0.410651 -1.629771
v -3.784794 0.640000 -1.694748
v -3.801964 0.154634 -2.540000
v -3.784795 0.427023 -2.540000
v -3.736675 0.640000 -2.540000
v -2.377280 0.640000 -0.601821
v -2.389918 0.640000 -1.628030
v -2.377281 0.151640 -2.540000
v -2.389918 0.410212 -2.540000
v -2.443047 0.640000 -2.540000
v -0.816965 0.640000 -0.596915
v -0.819739 0.640000 -1.607396
v -0.816965 0.150404 -2.540000
v -0.819739 0.405013 -2.540000
v -0.829431 0.640000 -2.540000
v 0.924417 -0.640000 2.540000
v 0.904226 -0.400771 2.540000
v 0.896128 -0.137792 2.540000
v 0.904226 -0.640000 1.590560
v 0.896128 -0.640000 0.546863
v 2.567114 -0.640000 2.540000
v 2.455364 -0.404004 2.540000
v 2.419072 -0.138782 2.540000
v 2.455364 -0.640000 1.603391
v 2.419072 -0.640000 0.550789
v 3.810000 -0.629582 2.498655
v 3.810000 -0.414901 2.521519
v 3.810000 -0.141784 2.533196
v 3.810000 -0.635343 1.646638
v 3.810000 -0.402871 1.598893
v 3.810000 -0.138536 1.585842
v 3.810000 -0.638286 0.562705
v 3.810000 -0.399582 0.549816
v 3.810000 -0.137399 0.545301
v 0.895202 0.150375 2.540000
v 0.902096 0.405735 2.540000
v 0.920554 0.640000 2.534642
v 0.902732 0.640000 1.584854
v 0.895372 0.640000 0.544644
v 2.415389 0.151533 2.540000
v 2.444656 0.410651 2.540000
v 2.542121 0.640000 2.523196
v 2.442045 0.640000 1.593279
v 2.411093 0.640000 0.546493
v 3.810000 0.154634 2.534643
v 3.810000 0.427023 2.523196
v 3.810000 0.640000 2.491117
v 3.810000 0.151640 1.584854
v 3.810000 0.410212 1.593279
v 3.810000 0.640000 1.628698
v 3.810000 0.150404 0.544644
v 3.810000 0.405013 0.546493
v 3.810000 0.640000 0.552954
v 0.895202 -0.640000 -0.596801
v 0.902096 -0.640000 -1.610260
v 0.920554 -0.638650 -2.540000
v 0.902732 -0.399333 -2.540000
v 0.895372 -0.137233 -2.540000
v 2.415389 -0.640000 -0.601397
v 2.444656 -0.640000 -1.629771
v 2.542121 -0.635766 -2.540000
v 2.442045 -0.401456 -2.540000
v 2.411094 -0.137699 -2.540000
v 3.810000 -0.638650 -0.613703
v 3.810000 -0.399333 -0.601821
v 3.810000 -0.137233 -0.596915
v 3.810000 -0.635766 -1.694748
v 3.810000 -0.401456 -1.628030
v 3.810000 -0.137699 -1.607396
v 3.810000 -0.627683 -2.540000
v 3.810000 -0.410381 -2.540000
v 3.810000 -0.139327 -2.540000
v 0.894605 0.640000 -0.596403
v 0.901108 0.640000 -1.605605
v 0.894605 0.150275 -2.540000
v 0.901108 0.404562 -2.540000
v 0.917213 0.640000 -2.540000
v 2.408408 0.640000 -0.600739
v 2.433037 0.640000 -1.622025
v 2.408408 0.151367 -2.540000
v 2.433037 0.408699 -2.540000
v 2.525067 0.640000 -2.540000
v 3.810000 0.150275 -0.596403
v 3.810000 0.404562 -0.600739
v 3.810000 0.640000 -0.611475
v 3.810000 0.151367 -1.605605
v 3.810000 0.408699 -1.622025
v 3.810000 0.640000 -1.683378
v 3.810000 0.154073 -2.540000
v 3.810000 0.424158 -2.540000
v 3.810000 0.640000 -2.540000
vn -1.0000 -0.0000 -0.0000
vn 0.0000 -0.0000 1.0000
vn 0.0000 -1.0000 0.0000
vn -0.9794 0.2014 0.0167
vn -0.9967 0.0810 0.0079
vn -0.0075 0.1358 0.9907
vn 0.0000 1.0000 -0.0000
vn -0.0035 0.0541 0.9985
vn -0.9964 -0.0673 -0.0516
vn -0.9993 -0.0316 -0.0205
vn -0.0019 -1.0000 -0.0087
vn 0.0000 0.0000 -1.0000
vn -0.0009 -1.0000 -0.0034
vn -0.9992 0.0390 0.0009
vn -0.9975 0.0702 -0.0080
vn -0.9999 -0.0037 -0.0098
vn -0.9993 0.0316 -0.0177
vn -0.9867 0.1577 -0.0397
vn 0.0230 -0.0450 0.9987
vn 0.0091 -0.0211 0.9997
vn 0.0058 -1.0000 0.0029
vn 1.0000 0.0000 0.0000
vn 0.0023 -1.0000 0.0013
vn -0.0004 0.0260 0.9997
vn 0.0035 0.0469 0.9989
vn 0.0044 -0.0024 1.0000
vn 0.0079 0.0211 0.9997
vn 0.0178 0.1060 0.9942
vn -0.0001 -1.0000 -0.0017
vn 0.0009 -1.0000 -0.0030
vn 0.0011 -1.0000 0.0002
vn 0.0020 -1.0000 -0.0013
vn 0.0045 -1.0000 -0.0068
usemtl None
s off
f 4//1 1//1 2//1 5//1
f 5//1 2//1 3//1 6//1
f 7//1 4//1 5//1 8//1
f 8//1 5//1 6//1 9//1
f 2//2 1//2 10//2 11//2
f 3//2 2//2 11//2 12//2
f 13//3 10//3 1//3 4//3
f 14//3 13//3 4//3 7//3
f 11//2 10//2 15//2 16//2
f 12//2 11//2 16//2 17//2
f 18//3 15//3 10//3 13//3
f 19//3 18//3 13//3 14//3
f 6//1 3//1 20//1 23//1
f 23//1 20//1 21//1 24//1
f 24//4 21//4 22//4 25//4
f 9//1 6//1 23//1 26//1
f 26//1 23//1 24//1 27//1
f 27//5 24//5 25//5 28//5
f 20//2 3//2 12//2 29//2
f 21//2 20//2 29//2 30//2
f 22//6 21//6 30//6 31//6
f 25//7 22//7 31//7 32//7
f 28//7 25//7 32//7 33//7
f 29//2 12//2 17//2 34//2
f 30//2 29//2 34//2 35//2
f 31//8 30//8 35//8 36//8
f 32//7 31//7 36//7 37//7
f 33//7 32//7 37//7 38//7
f 39//1 7//1 8//1 40//1
f 40//1 8//1 9//1 41//1
f 42//1 39//1 40//1 43//1
f 43//1 40//1 41//1 44//1
f 45//9 42//9 43//9 46//9
f 46//10 43//10 44//10 47//10
f 48//3 14//3 7//3 39//3
f 49//3 48//3 39//3 42//3
f 50//11 49//11 42//11 45//11
f 51//12 50//12 45//12 46//12
f 52//12 51//12 46//12 47//12
f 53//3 19//3 14//3 48//3
f 54//3 53//3 48//3 49//3
f 55//13 54//13 49//13 50//13
f 56//12 55//12 50//12 51//12
f 57//12 56//12 51//12 52//12
f 41//1 9//1 26//1 58//1
f 58//1 26//1 27//1 59//1
f 59//14 27//14 28//14 60//14
f 44//1 41//1 58//1 61//1
f 61//1 58//1 59//1 62//1
f 62//15 59//15 60//15 63//15
f 47//16 44//16 61//16 64//16
f 64//17 61//17 62//17 65//17
f 65//18 62//18 63//18 66//18
f 60//7 28//7 33//7 67//7
f 63//7 60//7 67//7 68//7
f 69//12 52//12 47//12 64//12
f 70//12 69//12 64//12 65//12
f 71//12 70//12 65//12 66//12
f 66//7 63//7 68//7 71//7
f 67//7 33//7 38//7 72//7
f 68//7 67//7 72//7 73//7
f 74//12 57//12 52//12 69//12
f 75//12 74//12 69//12 70//12
f 76//12 75//12 70//12 71//12
f 71//7 68//7 73//7 76//7
f 16//2 15//2 77//2 78//2
f 17//2 16//2 78//2 79//2
f 80//3 77//3 15//3 18//3
f 81//3 80//3 18//3 19//3
f 78//2 77//2 82//2 83//2
f 79//2 78//2 83//2 84//2
f 85//3 82//3 77//3 80//3
f 86//3 85//3 80//3 81//3
f 83//19 82//19 87//19 88//19
f 84//20 83//20 88//20 89//20
f 90//21 87//21 82//21 85//21
f 91//22 88//22 87//22 90//22
f 92//22 89//22 88//22 91//22
f 93//23 90//23 85//23 86//23
f 94//22 91//22 90//22 93//22
f 95//22 92//22 91//22 94//22
f 34//2 17//2 79//2 96//2
f 35//2 34//2 96//2 97//2
f 36//24 35//24 97//24 98//24
f 37//7 36//7 98//7 99//7
f 38//7 37//7 99//7 100//7
f 96//2 79//2 84//2 101//2
f 97//2 96//2 101//2 102//2
f 98//25 97//25 102//25 103//25
f 99//7 98//7 103//7 104//7
f 100//7 99//7 104//7 105//7
f 101//26 84//26 89//26 106//26
f 102//27 101//27 106//27 107//27
f 103//28 102//28 107//28 108//28
f 109//22 106//22 89//22 92//22
f 110//22 107//22 106//22 109//22
f 111//22 108//22 107//22 110//22
f 104//7 103//7 108//7 111//7
f 112//22 109//22 92//22 95//22
f 113//22 110//22 109//22 112//22
f 114//22 111//22 110//22 113//22
f 105//7 104//7 111//7 114//7
f 115//3 81//3 19//3 53//3
f 116//3 115//3 53//3 54//3
f 117//29 116//29 54//29 55//29
f 118//12 117//12 55//12 56//12
f 119//12 118//12 56//12 57//12
f 120//3 86//3 81//3 115//3
f 121//3 120//3 115//3 116//3
f 122//30 121//30 116//30 117//30
f 123//12 122//12 117//12 118//12
f 124//12 123//12 118//12 119//12
f 125//31 93//31 86//31 120//31
f 126//22 94//22 93//22 125//22
f 127//22 95//22 94//22 126//22
f 128//32 125//32 120//32 121//32
f 129//22 126//22 125//22 128//22
f 130//22 127//22 126//22 129//22
f 131//33 128//33 121//33 122//33
f 132//22 129//22 128//22 131//22
f 132//12 131//12 122//12 123//12
f 133//22 130//22 129//22 132//22
f 133//12 132//12 123//12 124//12
f 72//7 38//7 100//7 134//7
f 73//7 72//7 134//7 135//7
f 136//12 119//12 57//12 74//12
f 137//12 136//12 74//12 75//12
f 138//12 137//12 75//12 76//12
f 76//7 73//7 135//7 138//7
f 134//7 100//7 105//7 139//7
f 135//7 134//7 139//7 140//7
f 141//12 124//12 119//12 136//12
f 142//12 141//12 136//12 137//12
f 143//12 142//12 137//12 138//12
f 138//7 135//7 140//7 143//7
f 144//22 112//22 95//22 127//22
f 145//22 113//22 112//22 144//22
f 146//22 114//22 113//22 145//22
f 139//7 105//7 114//7 146//7
f 147//22 144//22 127//22 130//22
f 148//22 145//22 144//22 147//22
f 149//22 146//22 145//22 148//22
f 140//7 139//7 146//7 149//7
f 150//22 147//22 130//22 133//22
f 150//12 133//12 124//12 141//12
f 151//22 148//22 147//22 150//22
f 151//12 150//12 141//12 142//12
f 152//22 149//22 148//22 151//22
f 152//12 151//12 142//12 143//12
f 143//7 140//7 149//7 152//7
