# Blender v2.82 (sub 7) OBJ File: ''
# www.blender.org
mtllib plate.mtl
o Cube_Cube.001
v -3.810000 -2.540000 0.640000
v -3.810000 -1.905000 0.640000
v -3.810000 -0.635000 0.640000
v -3.810000 -2.540000 0.480000
v -3.810000 -1.905000 0.480000
v -3.810000 -0.635000 0.480000
v -3.810000 -2.540000 0.160000
v -3.810000 -1.905000 0.160000
v -3.810000 -0.635000 0.160000
v -2.857500 -2.540000 0.640000
v -2.857500 -1.905000 0.640000
v -2.857500 -0.635000 0.640000
v -2.857500 -2.540000 0.480000
v -2.857500 -2.540000 0.160000
v -0.952500 -2.540000 0.640000
v -0.952500 -1.905000 0.640000
v -0.952500 -0.635000 0.640000
v -0.952500 -2.540000 0.480000
v -0.952500 -2.540000 0.160000
v -3.810000 0.635000 0.640000
v -3.810000 1.905000 0.640000
v -3.810000 2.540000 0.640000
v -3.810000 0.635000 0.480000
v -3.810000 1.905000 0.480000
v -3.810000 2.540000 0.480000
v -3.810000 0.635000 0.160000
v -3.810000 1.905000 0.160000
v -3.810000 2.540000 0.160000
v -2.857500 0.635000 0.640000
v -2.857500 1.905000 0.640000
v -2.857500 2.540000 0.640000
v -2.857500 2.540000 0.480000
v -2.857500 2.540000 0.160000
v -0.952500 0.635000 0.640000
v -0.952500 1.905000 0.640000
v -0.952500 2.540000 0.640000
v -0.952500 2.540000 0.480000
v -0.952500 2.540000 0.160000
v -3.810000 -2.540000 -0.160000
v -3.810000 -1.905000 -0.160000
v -3.810000 -0.635000 -0.160000
v -3.810000 -2.540000 -0.480000
v -3.810000 -1.905000 -0.480000
v -3.810000 -0.635000 -0.480000
v -3.810000 -2.540000 -0.640000
v -3.810000 -1.905000 -0.640000
v -3.810000 -0.635000 -0.640000
v -2.857500 -2.540000 -0.160000
v -2.857500 -2.540000 -0.480000
v -2.857500 -2.540000 -0.640000
v -2.857500 -1.905000 -0.640000
v -2.857500 -0.635000 -0.640000
v -0.952500 -2.540000 -0.160000
v -0.952500 -2.540000 -0.480000
v -0.952500 -2.540000 -0.640000
v -0.952500 -1.905000 -0.640000
v -0.952500 -0.635000 -0.640000
v -3.810000 0.635000 -0.160000
v -3.810000 1.905000 -0.160000
v -3.810000 2.540000 -0.160000
v -3.810000 0.635000 -0.480000
v -3.810000 1.905000 -0.480000
v -3.810000 2.540000 -0.480000
v -3.810000 0.635000 -0.640000
v -3.810000 1.905000 -0.640000
v -3.810000 2.540000 -0.640000
v -2.857500 2.540000 -0.160000
v -2.857500 2.540000 -0.480000
v -2.857500 0.635000 -0.640000
v -2.857500 1.905000 -0.640000
v -2.857500 2.540000 -0.640000
v -0.952500 2.540000 -0.160000
v -0.952500 2.540000 -0.480000
v -0.952500 0.635000 -0.640000
v -0.952500 1.905000 -0.640000
v -0.952500 2.540000 -0.640000
v 0.952500 -2.540000 0.640000
v 0.952500 -1.905000 0.640000
v 0.952500 -0.635000 0.640000
v 0.952500 -2.540000 0.480000
v 0.952500 -2.540000 0.160000
v 2.857500 -2.540000 0.640000
v 2.857500 -1.905000 0.640000
v 2.857500 -0.635000 0.640000
v 2.857500 -2.540000 0.480000
v 2.857500 -2.540000 0.160000
v 3.810000 -2.540000 0.640000
v 3.810000 -1.905000 0.640000
v 3.810000 -0.635000 0.640000
v 3.810000 -2.540000 0.480000
v 3.810000 -1.905000 0.480000
v 3.810000 -0.635000 0.480000
v 3.810000 -2.540000 0.160000
v 3.810000 -1.905000 0.160000
v 3.810000 -0.635000 0.160000
v 0.952500 0.635000 0.640000
v 0.952500 1.905000 0.640000
v 0.952500 2.540000 0.640000
v 0.952500 2.540000 0.480000
v 0.952500 2.540000 0.160000
v 2.857500 0.635000 0.640000
v 2.857500 1.905000 0.640000
v 2.857500 2.540000 0.640000
v 2.857500 2.540000 0.480000
v 2.857500 2.540000 0.160000
v 3.810000 0.635000 0.640000
v 3.810000 1.905000 0.640000
v 3.810000 2.540000 0.640000
v 3.810000 0.635000 0.480000
v 3.810000 1.905000 0.480000
v 3.810000 2.540000 0.480000
v 3.810000 0.635000 0.160000
v 3.810000 1.905000 0.160000
v 3.810000 2.540000 0.160000
v 0.952500 -2.540000 -0.160000
v 0.952500 -2.540000 -0.480000
v 0.952500 -2.540000 -0.640000
v 0.952500 -1.905000 -0.640000
v 0.952500 -0.635000 -0.640000
v 2.857500 -2.540000 -0.160000
v 2.857500 -2.540000 -0.480000
v 2.857500 -2.540000 -0.640000
v 2.857500 -1.905000 -0.640000
v 2.857500 -0.635000 -0.640000
v 3.810000 -2.540000 -0.160000
v 3.810000 -1.905000 -0.160000
v 3.810000 -0.635000 -0.160000
v 3.810000 -2.540000 -0.480000
v 3.810000 -1.905000 -0.480000
v 3.810000 -0.635000 -0.480000
v 3.810000 -2.540000 -0.640000
v 3.810000 -1.905000 -0.640000
v 3.810000 -0.635000 -0.640000
v 0.952500 2.540000 -0.160000
v 0.952500 2.540000 -0.480000
v 0.952500 0.635000 -0.640000
v 0.952500 1.905000 -0.640000
v 0.952500 2.540000 -0.640000
v 2.857500 2.540000 -0.160000
v 2.857500 2.540000 -0.480000
v 2.857500 0.635000 -0.640000
v 2.857500 1.905000 -0.640000
v 2.857500 2.540000 -0.640000
v 3.810000 0.635000 -0.160000
v 3.810000 1.905000 -0.160000
v 3.810000 2.540000 -0.160000
v 3.810000 0.635000 -0.480000
v 3.810000 1.905000 -0.480000
v 3.810000 2.540000 -0.480000
v 3.810000 0.635000 -0.640000
v 3.810000 1.905000 -0.640000
v 3.810000 2.540000 -0.640000
vn -0.7071 -0.7071 0.0000
vn -0.5773 -0.5773 0.5773
vn -0.7071 0.0000 0.7071
vn -1.0000 0.0000 0.0000
vn 0.0000 -0.7071 0.7071
vn 0.0000 0.0000 1.0000
vn 0.0000 -1.0000 0.0000
vn -0.5773 0.5773 0.5773
vn -0.7071 0.7071 0.0000
vn 0.0000 0.7071 0.7071
vn 0.0000 1.0000 0.0000
vn -0.5773 -0.5773 -0.5773
vn -0.7071 0.0000 -0.7071
vn 0.0000 -0.7071 -0.7071
vn 0.0000 0.0000 -1.0000
vn -0.5773 0.5773 -0.5773
vn 0.0000 0.7071 -0.7071
vn 0.5773 -0.5773 0.5773
vn 0.7071 0.0000 0.7071
vn 0.7071 -0.7071 0.0000
vn 1.0000 0.0000 0.0000
vn 0.5773 0.5773 0.5773
vn 0.7071 0.7071 0.0000
vn 0.5773 -0.5773 -0.5773
vn 0.7071 0.0000 -0.7071
vn 0.5773 0.5773 -0.5773
usemtl None
s 1
f 4//1 1//2 2//3 5//4
f 5//4 2//3 3//3 6//4
f 7//1 4//1 5//4 8//4
f 8//4 5//4 6//4 9//4
f 2//3 1//2 10//5 11//6
f 3//3 2//3 11//6 12//6
f 13//7 10//5 1//2 4//1
f 14//7 13//7 4//1 7//1
f 11//6 10//5 15//5 16//6
f 12//6 11//6 16//6 17//6
f 18//7 15//5 10//5 13//7
f 19//7 18//7 13//7 14//7
f 6//4 3//3 20//3 23//4
f 23//4 20//3 21//3 24//4
f 24//4 21//3 22//8 25//9
f 9//4 6//4 23//4 26//4
f 26//4 23//4 24//4 27//4
f 27//4 24//4 25//9 28//9
f 20//3 3//3 12//6 29//6
f 21//3 20//3 29//6 30//6
f 22//8 21//3 30//6 31//10
f 25//9 22//8 31//10 32//11
f 28//9 25//9 32//11 33//11
f 29//6 12//6 17//6 34//6
f 30//6 29//6 34//6 35//6
f 31//10 30//6 35//6 36//10
f 32//11 31//10 36//10 37//11
f 33//11 32//11 37//11 38//11
f 39//1 7//1 8//4 40//4
f 40//4 8//4 9//4 41//4
f 42//1 39//1 40//4 43//4
f 43//4 40//4 41//4 44//4
f 45//12 42//1 43//4 46//13
f 46//13 43//4 44//4 47//13
f 48//7 14//7 7//1 39//1
f 49//7 48//7 39//1 42//1
f 50//14 49//7 42//1 45//12
f 51//15 50//14 45//12 46//13
f 52//15 51//15 46//13 47//13
f 53//7 19//7 14//7 48//7
f 54//7 53//7 48//7 49//7
f 55//14 54//7 49//7 50//14
f 56//15 55//14 50//14 51//15
f 57//15 56//15 51//15 52//15
f 41//4 9//4 26//4 58//4
f 58//4 26//4 27//4 59//4
f 59//4 27//4 28//9 60//9
f 44//4 41//4 58//4 61//4
f 61//4 58//4 59//4 62//4
f 62//4 59//4 60//9 63//9
f 47//13 44//4 61//4 64//13
f 64//13 61//4 62//4 65//13
f 65//13 62//4 63//9 66//16
f 60//9 28//9 33//11 67//11
f 63//9 60//9 67//11 68//11
f 69//15 52//15 47//13 64//13
f 70//15 69//15 64//13 65//13
f 71//17 70//15 65//13 66//16
f 66//16 63//9 68//11 71//17
f 67//11 33//11 38//11 72//11
f 68//11 67//11 72//11 73//11
f 74//15 57//15 52//15 69//15
f 75//15 74//15 69//15 70//15
f 76//17 75//15 70//15 71//17
f 71//17 68//11 73//11 76//17
f 16//6 15//5 77//5 78//6
f 17//6 16//6 78//6 79//6
f 80//7 77//5 15//5 18//7
f 81//7 80//7 18//7 19//7
f 78//6 77//5 82//5 83//6
f 79//6 78//6 83//6 84//6
f 85//7 82//5 77//5 80//7
f 86//7 85//7 80//7 81//7
f 83//6 82//5 87//18 88//19
f 84//6 83//6 88//19 89//19
f 90//20 87//18 82//5 85//7
f 91//21 88//19 87//18 90//20
f 92//21 89//19 88//19 91//21
f 93//20 90//20 85//7 86//7
f 94//21 91//21 90//20 93//20
f 95//21 92//21 91//21 94//21
f 34//6 17//6 79//6 96//6
f 35//6 34//6 96//6 97//6
f 36//10 35//6 97//6 98//10
f 37//11 36//10 98//10 99//11
f 38//11 37//11 99//11 100//11
f 96//6 79//6 84//6 101//6
f 97//6 96//6 101//6 102//6
f 98//10 97//6 102//6 103//10
f 99//11 98//10 103//10 104//11
f 100//11 99//11 104//11 105//11
f 101//6 84//6 89//19 106//19
f 102//6 101//6 106//19 107//19
f 103//10 102//6 107//19 108//22
f 109//21 106//19 89//19 92//21
f 110//21 107//19 106//19 109//21
f 111//23 108//22 107//19 110//21
f 104//11 103//10 108//22 111//23
f 112//21 109//21 92//21 95//21
f 113//21 110//21 109//21 112//21
f 114//23 111//23 110//21 113//21
f 105//11 104//11 111//23 114//23
f 115//7 81//7 19//7 53//7
f 116//7 115//7 53//7 54//7
f 117//14 116//7 54//7 55//14
f 118//15 117//14 55//14 56//15
f 119//15 118//15 56//15 57//15
f 120//7 86//7 81//7 115//7
f 121//7 120//7 115//7 116//7
f 122//14 121//7 116//7 117//14
f 123//15 122//14 117//14 118//15
f 124//15 123//15 118//15 119//15
f 125//20 93//20 86//7 120//7
f 126//21 94//21 93//20 125//20
f 127//21 95//21 94//21 126//21
f 128//20 125//20 120//7 121//7
f 129//21 126//21 125//20 128//20
f 130//21 127//21 126//21 129//21
f 131//24 128//20 121//7 122//14
f 132//25 129//21 128//20 131//24
f 132//25 131//24 122//14 123//15
f 133//25 130//21 129//21 132//25
f 133//25 132//25 123//15 124//15
f 72//11 38//11 100//11 134//11
f 73//11 72//11 134//11 135//11
f 136//15 119//15 57//15 74//15
f 137//15 136//15 74//15 75//15
f 138//17 137//15 75//15 76//17
f 76//17 73//11 135//11 138//17
f 134//11 100//11 105//11 139//11
f 135//11 134//11 139//11 140//11
f 141//15 124//15 119//15 136//15
f 142//15 141//15 136//15 137//15
f 143//17 142//15 137//15 138//17
f 138//17 135//11 140//11 143//17
f 144//21 112//21 95//21 127//21
f 145//21 113//21 112//21 144//21
f 146//23 114//23 113//21 145//21
f 139//11 105//11 114//23 146//23
f 147//21 144//21 127//21 130//21
f 148//21 145//21 144//21 147//21
f 149//23 146//23 145//21 148//21
f 140//11 139//11 146//23 149//23
f 150//25 147//21 130//21 133//25
f 150//25 133//25 124//15 141//15
f 151//25 148//21 147//21 150//25
f 151//25 150//25 141//15 142//15
f 152//26 149//23 148//21 151//25
f 152//26 151//25 142//15 143//17
f 143//17 140//11 149//23 152//26
