# Blender v2.82 (sub 7) OBJ File: ''
# www.blender.org
mtllib body.mtl
o Cube
v -4.833333 -4.833333 4.833333
v -4.875000 -2.375000 4.875000
v -4.875000 -4.875000 2.375000
v -5.000000 -2.375000 2.375000
v -2.375000 -4.875000 4.875000
v -2.375000 -2.375000 5.000000
v -2.375000 -5.000000 2.375000
v -4.875000 2.375000 4.875000
v -4.833333 4.833333 4.833333
v -5.000000 2.375000 2.375000
v -4.875000 4.875000 2.375000
v -2.375000 2.375000 5.000000
v -2.375000 4.875000 4.875000
v -2.375000 5.000000 2.375000
v -4.875000 -4.875000 -2.375000
v -5.000000 -2.375000 -2.375000
v -4.833333 -4.833333 -4.833333
v -4.875000 -2.375000 -4.875000
v -2.375000 -5.000000 -2.375000
v -2.375000 -4.875000 -4.875000
v -2.375000 -2.375000 -5.000000
v -5.000000 2.375000 -2.375000
v -4.875000 4.875000 -2.375000
v -4.875000 2.375000 -4.875000
v -4.833333 4.833333 -4.833333
v -2.375000 5.000000 -2.375000
v -2.375000 2.375000 -5.000000
v -2.375000 4.875000 -4.875000
v 2.375000 -4.875000 4.875000
v 2.375000 -2.375000 5.000000
v 2.375000 -5.000000 2.375000
v 4.833333 -4.833333 4.833333
v 4.875000 -2.375000 4.875000
v 4.875000 -4.875000 2.375000
v 5.000000 -2.375000 2.375000
v 2.375000 2.375000 5.000000
v 2.375000 4.875000 4.875000
v 2.375000 5.000000 2.375000
v 4.875000 2.375000 4.875000
v 4.833333 4.833333 4.833333
v 5.000000 2.375000 2.375000
v 4.875000 4.875000 2.375000
v 2.375000 -5.000000 -2.375000
v 2.375000 -4.875000 -4.875000
v 2.375000 -2.375000 -5.000000
v 4.875000 -4.875000 -2.375000
v 5.000000 -2.375000 -2.375000
v 4.833333 -4.833333 -4.833333
v 4.875000 -2.375000 -4.875000
v 2.375000 5.000000 -2.375000
v 2.375000 2.375000 -5.000000
v 2.375000 4.875000 -4.875000
v 5.000000 2.375000 -2.375000
v 4.875000 4.875000 -2.375000
v 4.875000 2.375000 -4.875000
v 4.833333 4.833333 -4.833333
vn -0.9989 -0.0339 0.0339
vn -0.0339 -0.0339 0.9989
vn -0.0339 -0.9989 0.0339
vn -0.9988 0.0000 0.0499
vn -0.9989 0.0339 0.0339
vn -0.0499 0.0000 0.9988
vn -0.0339 0.0339 0.9989
vn -0.0339 0.9989 0.0339
vn -0.9988 -0.0499 0.0000
vn -0.9989 -0.0339 -0.0339
vn -0.0499 -0.9988 0.0000
vn -0.0339 -0.9989 -0.0339
vn -0.0339 -0.0339 -0.9989
vn -1.0000 0.0000 0.0000
vn -0.9988 0.0499 0.0000
vn -0.9988 0.0000 -0.0499
vn -0.9989 0.0339 -0.0339
vn -0.0499 0.9988 0.0000
vn -0.0499 0.0000 -0.9988
vn -0.0339 0.0339 -0.9989
vn -0.0339 0.9989 -0.0339
vn 0.0000 -0.0499 0.9988
vn 0.0000 -0.9988 0.0499
vn 0.0339 -0.0339 0.9989
vn 0.0339 -0.9989 0.0339
vn 0.9989 -0.0339 0.0339
vn 0.0000 0.0000 1.0000
vn 0.0000 0.0499 0.9988
vn 0.0000 0.9988 0.0499
vn 0.0499 0.0000 0.9988
vn 0.0339 0.0339 0.9989
vn 0.9988 0.0000 0.0499
vn 0.9989 0.0339 0.0339
vn 0.0339 0.9989 0.0339
vn 0.0000 -1.0000 0.0000
vn 0.0000 -0.9988 -0.0499
vn 0.0000 -0.0499 -0.9988
vn 0.0499 -0.9988 0.0000
vn 0.9988 -0.0499 0.0000
vn 0.0339 -0.9989 -0.0339
vn 0.9989 -0.0339 -0.0339
vn 0.0339 -0.0339 -0.9989
vn 0.0000 1.0000 0.0000
vn 0.0000 0.0000 -1.0000
vn 0.0000 0.0499 -0.9988
vn 0.0000 0.9988 -0.0499
vn 1.0000 0.0000 0.0000
vn 0.9988 0.0499 0.0000
vn 0.0499 0.9988 0.0000
vn 0.9988 0.0000 -0.0499
vn 0.0499 0.0000 -0.9988
vn 0.9989 0.0339 -0.0339
vn 0.0339 0.0339 -0.9989
vn 0.0339 0.9989 -0.0339
usemtl Material
s off
f 3//1 1//1 2//1 4//1
f 2//2 1//2 5//2 6//2
f 7//3 5//3 1//3 3//3
f 4//4 2//4 8//4 10//4
f 10//5 8//5 9//5 11//5
f 8//6 2//6 6//6 12//6
f 9//7 8//7 12//7 13//7
f 11//8 9//8 13//8 14//8
f 15//9 3//9 4//9 16//9
f 17//10 15//10 16//10 18//10
f 19//11 7//11 3//11 15//11
f 20//12 19//12 15//12 17//12
f 21//13 20//13 17//13 18//13
f 16//14 4//14 10//14 22//14
f 22//15 10//15 11//15 23//15
f 18//16 16//16 22//16 24//16
f 24//17 22//17 23//17 25//17
f 23//18 11//18 14//18 26//18
f 27//19 21//19 18//19 24//19
f 28//20 27//20 24//20 25//20
f 25//21 23//21 26//21 28//21
f 6//22 5//22 29//22 30//22
f 31//23 29//23 5//23 7//23
f 30//24 29//24 32//24 33//24
f 34//25 32//25 29//25 31//25
f 35//26 33//26 32//26 34//26
f 12//27 6//27 30//27 36//27
f 13//28 12//28 36//28 37//28
f 14//29 13//29 37//29 38//29
f 36//30 30//30 33//30 39//30
f 37//31 36//31 39//31 40//31
f 41//32 39//32 33//32 35//32
f 42//33 40//33 39//33 41//33
f 38//34 37//34 40//34 42//34
f 43//35 31//35 7//35 19//35
f 44//36 43//36 19//36 20//36
f 45//37 44//37 20//37 21//37
f 46//38 34//38 31//38 43//38
f 47//39 35//39 34//39 46//39
f 48//40 46//40 43//40 44//40
f 49//41 47//41 46//41 48//41
f 49//42 48//42 44//42 45//42
f 26//43 14//43 38//43 50//43
f 51//44 45//44 21//44 27//44
f 52//45 51//45 27//45 28//45
f 28//46 26//46 50//46 52//46
f 53//47 41//47 35//47 47//47
f 54//48 42//48 41//48 53//48
f 50//49 38//49 42//49 54//49
f 55//50 53//50 47//50 49//50
f 55//51 49//51 45//51 51//51
f 56//52 54//52 53//52 55//52
f 56//53 55//53 51//53 52//53
f 52//54 50//54 54//54 56//54
